<mxfile host="app.diagrams.net" agent="Mozilla/5.0 (X11; Ubuntu; Linux x86_64; rv:137.0) Gecko/20100101 Firefox/137.0" version="26.2.14">
  <diagram name="Page-1" id="CFFjGQsIW9Dy2ZoPYiRM">
    <mxGraphModel dx="2210" dy="1895" grid="1" gridSize="10" guides="1" tooltips="1" connect="1" arrows="1" fold="1" page="1" pageScale="1" pageWidth="850" pageHeight="1100" math="0" shadow="0">
      <root>
        <mxCell id="0" />
        <mxCell id="1" parent="0" />
        <mxCell id="PLnWmhKH_hj00JdtdD3A-1" value="Global queue&amp;nbsp;" style="rounded=1;whiteSpace=wrap;html=1;fillColor=#dae8fc;strokeColor=#6c8ebf;align=right;verticalAlign=top;fontSize=20;" parent="1" vertex="1">
          <mxGeometry x="-70" y="-580" width="230" height="100" as="geometry" />
        </mxCell>
        <mxCell id="E0QZvlZor7kNDEkdH7sS-3" value="MUTEX" style="shape=process;whiteSpace=wrap;html=1;backgroundOutline=1;fillColor=#f8cecc;strokeColor=#b85450;" parent="1" vertex="1">
          <mxGeometry x="-20" y="-520" width="120" height="40" as="geometry" />
        </mxCell>
        <mxCell id="E0QZvlZor7kNDEkdH7sS-90" value="Blocking threadpool" style="rounded=1;whiteSpace=wrap;html=1;fillColor=none;verticalAlign=top;strokeColor=#000000;fontSize=16;" parent="1" vertex="1">
          <mxGeometry x="-110" y="-410" width="960" height="280" as="geometry" />
        </mxCell>
        <mxCell id="E0QZvlZor7kNDEkdH7sS-102" value="Thread" style="ellipse;whiteSpace=wrap;html=1;align=center;verticalAlign=top;fillColor=#f5f5f5;fontColor=#333333;strokeColor=#666666;" parent="1" vertex="1">
          <mxGeometry x="-100" y="-380" width="140" height="240" as="geometry" />
        </mxCell>
        <mxCell id="E0QZvlZor7kNDEkdH7sS-91" value="Worker core" style="rounded=1;whiteSpace=wrap;html=1;verticalAlign=top;fillColor=#d5e8d4;strokeColor=#82b366;" parent="1" vertex="1">
          <mxGeometry x="-75" y="-355" width="90" height="190" as="geometry" />
        </mxCell>
        <mxCell id="E0QZvlZor7kNDEkdH7sS-98" value="Local queue" style="rounded=1;whiteSpace=wrap;html=1;verticalAlign=bottom;fillColor=#fff2cc;strokeColor=#d6b656;" parent="1" vertex="1">
          <mxGeometry x="-70" y="-275" width="80" height="110" as="geometry" />
        </mxCell>
        <mxCell id="E0QZvlZor7kNDEkdH7sS-99" value="LIFO Slot" style="rounded=1;whiteSpace=wrap;html=1;fillColor=#fff2cc;strokeColor=#d6b656;" parent="1" vertex="1">
          <mxGeometry x="-70" y="-325" width="80" height="40" as="geometry" />
        </mxCell>
        <mxCell id="E0QZvlZor7kNDEkdH7sS-87" value="Thread" style="ellipse;whiteSpace=wrap;html=1;align=center;verticalAlign=top;fillColor=#f5f5f5;fontColor=#333333;strokeColor=#666666;" parent="1" vertex="1">
          <mxGeometry x="540" y="-380" width="140" height="240" as="geometry" />
        </mxCell>
        <mxCell id="E0QZvlZor7kNDEkdH7sS-88" value="Thread" style="ellipse;whiteSpace=wrap;html=1;align=center;verticalAlign=top;fillColor=#f5f5f5;fontColor=#333333;strokeColor=#666666;" parent="1" vertex="1">
          <mxGeometry x="700" y="-380" width="140" height="240" as="geometry" />
        </mxCell>
        <mxCell id="E0QZvlZor7kNDEkdH7sS-103" value="Worker core" style="rounded=1;whiteSpace=wrap;html=1;verticalAlign=top;fillColor=#bac8d3;strokeColor=#23445d;" parent="1" vertex="1">
          <mxGeometry x="565" y="-355" width="90" height="190" as="geometry" />
        </mxCell>
        <mxCell id="E0QZvlZor7kNDEkdH7sS-104" value="Worker core" style="rounded=1;whiteSpace=wrap;html=1;verticalAlign=top;fillColor=#bac8d3;strokeColor=#23445d;" parent="1" vertex="1">
          <mxGeometry x="725" y="-355" width="90" height="190" as="geometry" />
        </mxCell>
        <mxCell id="E0QZvlZor7kNDEkdH7sS-106" value="Thread" style="ellipse;whiteSpace=wrap;html=1;align=center;verticalAlign=top;fillColor=#f5f5f5;fontColor=#333333;strokeColor=#666666;" parent="1" vertex="1">
          <mxGeometry x="60" y="-380" width="140" height="240" as="geometry" />
        </mxCell>
        <mxCell id="E0QZvlZor7kNDEkdH7sS-107" value="Worker core" style="rounded=1;whiteSpace=wrap;html=1;verticalAlign=top;fillColor=#d5e8d4;strokeColor=#82b366;" parent="1" vertex="1">
          <mxGeometry x="85" y="-355" width="90" height="190" as="geometry" />
        </mxCell>
        <mxCell id="E0QZvlZor7kNDEkdH7sS-108" value="Local queue" style="rounded=1;whiteSpace=wrap;html=1;verticalAlign=bottom;fillColor=#fff2cc;strokeColor=#d6b656;" parent="1" vertex="1">
          <mxGeometry x="90" y="-275" width="80" height="110" as="geometry" />
        </mxCell>
        <mxCell id="E0QZvlZor7kNDEkdH7sS-109" value="Notified" style="rounded=1;whiteSpace=wrap;html=1;fillColor=#e1d5e7;strokeColor=#9673a6;" parent="1" vertex="1">
          <mxGeometry x="90" y="-325" width="80" height="40" as="geometry" />
        </mxCell>
        <mxCell id="E0QZvlZor7kNDEkdH7sS-110" value="Notified" style="rounded=1;whiteSpace=wrap;html=1;fillColor=#e1d5e7;strokeColor=#9673a6;" parent="1" vertex="1">
          <mxGeometry x="90" y="-275" width="80" height="40" as="geometry" />
        </mxCell>
        <mxCell id="E0QZvlZor7kNDEkdH7sS-111" value="Notified" style="rounded=1;whiteSpace=wrap;html=1;fillColor=#e1d5e7;strokeColor=#9673a6;" parent="1" vertex="1">
          <mxGeometry x="90" y="-235" width="80" height="40" as="geometry" />
        </mxCell>
        <mxCell id="E0QZvlZor7kNDEkdH7sS-112" value="Thread" style="ellipse;whiteSpace=wrap;html=1;align=center;verticalAlign=top;fillColor=#f5f5f5;fontColor=#333333;strokeColor=#666666;" parent="1" vertex="1">
          <mxGeometry x="220" y="-380" width="140" height="240" as="geometry" />
        </mxCell>
        <mxCell id="E0QZvlZor7kNDEkdH7sS-113" value="Worker core" style="rounded=1;whiteSpace=wrap;html=1;verticalAlign=top;fillColor=#d5e8d4;strokeColor=#82b366;" parent="1" vertex="1">
          <mxGeometry x="245" y="-355" width="90" height="190" as="geometry" />
        </mxCell>
        <mxCell id="E0QZvlZor7kNDEkdH7sS-114" value="Local queue" style="rounded=1;whiteSpace=wrap;html=1;verticalAlign=bottom;fillColor=#fff2cc;strokeColor=#d6b656;" parent="1" vertex="1">
          <mxGeometry x="250" y="-275" width="80" height="110" as="geometry" />
        </mxCell>
        <mxCell id="E0QZvlZor7kNDEkdH7sS-115" value="Notified" style="rounded=1;whiteSpace=wrap;html=1;fillColor=#e1d5e7;strokeColor=#9673a6;" parent="1" vertex="1">
          <mxGeometry x="250" y="-325" width="80" height="40" as="geometry" />
        </mxCell>
        <mxCell id="E0QZvlZor7kNDEkdH7sS-116" value="Notified" style="rounded=1;whiteSpace=wrap;html=1;fillColor=#e1d5e7;strokeColor=#9673a6;" parent="1" vertex="1">
          <mxGeometry x="250" y="-275" width="80" height="40" as="geometry" />
        </mxCell>
        <mxCell id="E0QZvlZor7kNDEkdH7sS-118" value="Thread" style="ellipse;whiteSpace=wrap;html=1;align=center;verticalAlign=top;fillColor=#f5f5f5;fontColor=#333333;strokeColor=#666666;" parent="1" vertex="1">
          <mxGeometry x="380" y="-380" width="140" height="240" as="geometry" />
        </mxCell>
        <mxCell id="E0QZvlZor7kNDEkdH7sS-119" value="Worker core" style="rounded=1;whiteSpace=wrap;html=1;verticalAlign=top;fillColor=#d5e8d4;strokeColor=#82b366;" parent="1" vertex="1">
          <mxGeometry x="405" y="-355" width="90" height="190" as="geometry" />
        </mxCell>
        <mxCell id="E0QZvlZor7kNDEkdH7sS-120" value="Local queue" style="rounded=1;whiteSpace=wrap;html=1;verticalAlign=bottom;fillColor=#fff2cc;strokeColor=#d6b656;" parent="1" vertex="1">
          <mxGeometry x="410" y="-275" width="80" height="110" as="geometry" />
        </mxCell>
        <mxCell id="E0QZvlZor7kNDEkdH7sS-121" value="Notified" style="rounded=1;whiteSpace=wrap;html=1;fillColor=#e1d5e7;strokeColor=#9673a6;" parent="1" vertex="1">
          <mxGeometry x="410" y="-325" width="80" height="40" as="geometry" />
        </mxCell>
        <mxCell id="E0QZvlZor7kNDEkdH7sS-122" value="Notified" style="rounded=1;whiteSpace=wrap;html=1;fillColor=#e1d5e7;strokeColor=#9673a6;" parent="1" vertex="1">
          <mxGeometry x="410" y="-275" width="80" height="40" as="geometry" />
        </mxCell>
        <mxCell id="E0QZvlZor7kNDEkdH7sS-123" value="Notified" style="rounded=1;whiteSpace=wrap;html=1;fillColor=#e1d5e7;strokeColor=#9673a6;" parent="1" vertex="1">
          <mxGeometry x="410" y="-235" width="80" height="40" as="geometry" />
        </mxCell>
        <mxCell id="gFofIBb976VXe0n4CRGK-4" value="Global queue&amp;nbsp;" style="rounded=1;whiteSpace=wrap;html=1;fillColor=#dae8fc;strokeColor=#6c8ebf;align=right;verticalAlign=top;fontSize=20;" parent="1" vertex="1">
          <mxGeometry x="260" y="-580" width="230" height="100" as="geometry" />
        </mxCell>
        <mxCell id="gFofIBb976VXe0n4CRGK-5" value="MUTEX" style="shape=process;whiteSpace=wrap;html=1;backgroundOutline=1;fillColor=#f8cecc;strokeColor=#b85450;" parent="1" vertex="1">
          <mxGeometry x="315" y="-520" width="120" height="40" as="geometry" />
        </mxCell>
        <mxCell id="gFofIBb976VXe0n4CRGK-11" value="" style="endArrow=classic;html=1;rounded=0;exitX=0.5;exitY=0;exitDx=0;exitDy=0;entryX=0.5;entryY=1;entryDx=0;entryDy=0;" parent="1" source="E0QZvlZor7kNDEkdH7sS-102" target="E0QZvlZor7kNDEkdH7sS-3" edge="1">
          <mxGeometry width="50" height="50" relative="1" as="geometry">
            <mxPoint x="430" y="-410" as="sourcePoint" />
            <mxPoint x="480" y="-460" as="targetPoint" />
          </mxGeometry>
        </mxCell>
        <mxCell id="gFofIBb976VXe0n4CRGK-12" value="" style="endArrow=classic;html=1;rounded=0;exitX=0.5;exitY=0;exitDx=0;exitDy=0;entryX=0.5;entryY=1;entryDx=0;entryDy=0;" parent="1" source="E0QZvlZor7kNDEkdH7sS-106" target="E0QZvlZor7kNDEkdH7sS-3" edge="1">
          <mxGeometry width="50" height="50" relative="1" as="geometry">
            <mxPoint x="430" y="-410" as="sourcePoint" />
            <mxPoint x="480" y="-460" as="targetPoint" />
          </mxGeometry>
        </mxCell>
        <mxCell id="gFofIBb976VXe0n4CRGK-13" value="" style="endArrow=classic;html=1;rounded=0;exitX=0.5;exitY=0;exitDx=0;exitDy=0;entryX=0.5;entryY=1;entryDx=0;entryDy=0;" parent="1" source="E0QZvlZor7kNDEkdH7sS-112" target="gFofIBb976VXe0n4CRGK-5" edge="1">
          <mxGeometry width="50" height="50" relative="1" as="geometry">
            <mxPoint x="430" y="-410" as="sourcePoint" />
            <mxPoint x="480" y="-460" as="targetPoint" />
          </mxGeometry>
        </mxCell>
        <mxCell id="gFofIBb976VXe0n4CRGK-14" value="" style="endArrow=classic;html=1;rounded=0;exitX=0.5;exitY=0;exitDx=0;exitDy=0;entryX=0.5;entryY=1;entryDx=0;entryDy=0;" parent="1" source="E0QZvlZor7kNDEkdH7sS-118" target="gFofIBb976VXe0n4CRGK-5" edge="1">
          <mxGeometry width="50" height="50" relative="1" as="geometry">
            <mxPoint x="430" y="-410" as="sourcePoint" />
            <mxPoint x="480" y="-460" as="targetPoint" />
          </mxGeometry>
        </mxCell>
      </root>
    </mxGraphModel>
  </diagram>
</mxfile>
